<?xml version="1.0" standalone="no"?>
<!DOCTYPE svg PUBLIC "-//W3C//DTD SVG 20010904//EN"
 "http://www.w3.org/TR/2001/REC-SVG-20010904/DTD/svg10.dtd">
<svg version="1.0" xmlns="http://www.w3.org/2000/svg"
 width="1000.000000pt" height="1080.000000pt" viewBox="0 0 1000.000000 1080.000000"
 preserveAspectRatio="xMidYMid meet">
<metadata>
Created by potrace 1.16, written by Peter Selinger 2001-2019
</metadata>
<g transform="translate(0.000000,1080.000000) scale(0.100000,-0.100000)"
fill="#000000" stroke="none">
<path d="M3890 7935 c-586 -338 -1066 -618 -1067 -622 -2 -5 228 -141 509
-303 282 -162 570 -328 640 -368 l127 -73 852 492 c469 271 858 492 864 492 7
0 193 -104 414 -232 221 -127 412 -237 426 -243 21 -9 45 2 219 102 108 62
202 118 211 124 12 9 -107 81 -618 376 -347 200 -641 365 -652 365 -11 -1
-400 -220 -863 -488 -464 -268 -848 -487 -854 -487 -5 0 -104 55 -220 122
-199 115 -209 122 -187 134 57 30 1675 966 1682 973 6 6 -363 228 -412 249 -4
1 -486 -275 -1071 -613z"/>
<path d="M2380 6319 c0 -407 4 -739 8 -737 5 2 101 57 215 123 l207 119 0 249
0 249 38 -22 c20 -12 303 -176 627 -363 325 -187 597 -345 606 -350 16 -10 91
31 559 303 63 37 237 137 385 222 149 86 385 222 525 303 140 82 260 148 265
148 9 0 907 -515 931 -534 7 -6 167 81 440 239 l429 247 3 249 c1 137 -2 246
-6 244 -5 -1 -199 -113 -430 -246 l-422 -244 -469 271 c-258 149 -472 271
-476 271 -4 0 -388 -220 -855 -490 -466 -269 -851 -490 -856 -492 -8 -3 -288
157 -1402 801 -172 100 -315 181 -318 181 -2 0 -4 -333 -4 -741z"/>
<path d="M5041 5525 c-470 -271 -857 -492 -860 -491 -115 65 -919 531 -927
537 -7 6 -162 -78 -420 -227 -225 -130 -419 -243 -431 -250 -23 -14 -23 -16
-23 -259 0 -135 2 -245 5 -245 3 0 116 65 252 143 137 79 328 190 425 246
l178 103 470 -272 c268 -155 477 -270 485 -266 13 5 1608 923 1678 966 l29 17
341 -197 c188 -108 573 -331 856 -494 282 -163 515 -295 517 -293 2 2 3 335 2
740 l-3 736 -212 -121 -213 -122 -2 -247 -3 -247 -639 369 c-352 203 -642 369
-645 369 -3 -1 -391 -223 -860 -495z"/>
<path d="M5075 4554 c-451 -262 -836 -484 -856 -494 l-36 -19 -399 230 c-219
127 -409 237 -421 245 -12 8 -28 14 -34 14 -10 0 -404 -223 -421 -239 -7 -6
1239 -730 1271 -738 9 -2 111 51 226 118 116 66 282 163 370 214 88 50 250
144 360 207 110 64 325 188 478 277 153 89 283 161 288 161 8 0 244 -132 392
-220 l38 -22 -133 -77 c-73 -43 -299 -174 -503 -291 -1126 -649 -1078 -621
-1068 -630 4 -4 100 -60 213 -124 197 -114 205 -117 230 -103 23 14 383 222
1315 760 182 104 437 252 568 328 l237 137 -172 99 c-95 55 -380 220 -634 366
-254 147 -467 269 -475 271 -8 3 -383 -209 -834 -470z"/>
<path d="M0 400 l0 -400 5000 0 5000 0 0 400 0 400 -5000 0 -5000 0 0 -400z
m1395 106 c25 -11 33 -19 29 -30 -7 -19 -5 -19 -40 -1 -36 18 -55 19 -78 2
-28 -21 -9 -45 49 -62 87 -25 108 -74 54 -127 -29 -29 -33 -30 -90 -25 -68 6
-72 8 -64 29 5 13 12 14 40 5 50 -15 100 1 100 33 0 16 -8 28 -25 36 -87 40
-105 51 -108 67 -14 70 53 106 133 73z m587 -48 l3 -62 36 32 c20 18 45 32 55
32 14 0 9 -9 -21 -40 l-39 -40 42 -60 c40 -57 41 -60 20 -60 -16 0 -32 14 -53
45 -16 25 -33 45 -37 45 -5 0 -8 -20 -8 -45 0 -38 -3 -45 -20 -45 -19 0 -20 7
-20 130 0 122 1 130 20 130 16 0 19 -8 22 -62z m-1353 -24 c12 -15 21 -40 21
-55 0 -29 0 -29 -65 -29 -72 0 -83 -12 -44 -51 17 -17 30 -20 65 -16 43 4 59
-5 28 -17 -45 -17 -106 3 -123 41 -45 98 56 206 118 127z m456 3 c20 -16 28
-35 32 -69 5 -42 3 -50 -25 -78 -41 -41 -83 -41 -124 0 -28 28 -30 36 -25 78
9 82 84 119 142 69z m622 8 c30 -21 44 -75 32 -120 -25 -88 -143 -88 -168 0
-20 72 20 135 84 135 17 0 40 -7 52 -15z"/>
<path d="M986 424 c-50 -50 -21 -144 44 -144 48 0 80 50 66 104 -13 53 -75 75
-110 40z"/>
</g>
</svg>
